<svg width="869" height="80" viewBox="0 0 869 80" fill="none" xmlns="http://www.w3.org/2000/svg">
<path d="M0.871 78V5.9H25.179V59.151H57.727V78H0.871ZM86.6893 32.68H118.825V50.19H86.6893V32.68ZM88.3373 59.666H124.387V78H64.4413V5.9H123.048V24.234H88.3373V59.666ZM149.401 78V24.749H128.286V5.9H194.824V24.749H173.709V78H149.401ZM200.984 42.568L209.636 13.625L213.035 26.603C209.052 26.603 205.791 25.47 203.25 23.204C200.709 20.8693 199.439 17.7107 199.439 13.728C199.439 9.67666 200.709 6.48366 203.25 4.149C205.859 1.74566 209.121 0.543997 213.035 0.543997C216.949 0.543997 220.176 1.74566 222.717 4.149C225.326 6.48366 226.631 9.67666 226.631 13.728C226.631 14.8267 226.528 15.9253 226.322 17.024C226.185 18.1227 225.841 19.4617 225.292 21.041C224.743 22.5517 223.85 24.6117 222.614 27.221L215.404 42.568H200.984ZM262.421 79.648C256.378 79.648 250.542 78.9613 244.911 77.588C239.28 76.2147 234.645 74.4293 231.006 72.232L238.834 54.516C242.267 56.5073 246.078 58.121 250.267 59.357C254.524 60.5243 258.644 61.108 262.627 61.108C264.962 61.108 266.781 60.9707 268.086 60.696C269.459 60.3527 270.455 59.9063 271.073 59.357C271.691 58.739 272 58.018 272 57.194C272 55.8893 271.279 54.8593 269.837 54.104C268.395 53.3487 266.472 52.7307 264.069 52.25C261.734 51.7007 259.159 51.1513 256.344 50.602C253.529 49.984 250.679 49.1943 247.795 48.233C244.98 47.2717 242.37 46.0013 239.967 44.422C237.632 42.8427 235.744 40.7827 234.302 38.242C232.86 35.6327 232.139 32.4053 232.139 28.56C232.139 24.0967 233.375 20.0453 235.847 16.406C238.388 12.698 242.13 9.74533 247.074 7.548C252.087 5.35066 258.301 4.252 265.717 4.252C270.592 4.252 275.399 4.767 280.137 5.797C284.875 6.827 289.132 8.40633 292.909 10.535L285.596 28.148C282.025 26.3627 278.558 25.0237 275.193 24.131C271.897 23.2383 268.67 22.792 265.511 22.792C263.176 22.792 261.322 22.998 259.949 23.41C258.576 23.822 257.58 24.3713 256.962 25.058C256.413 25.7447 256.138 26.5 256.138 27.324C256.138 28.56 256.859 29.5557 258.301 30.311C259.743 30.9977 261.631 31.5813 263.966 32.062C266.369 32.5427 268.979 33.0577 271.794 33.607C274.678 34.1563 277.528 34.9117 280.343 35.873C283.158 36.8343 285.733 38.1047 288.068 39.684C290.471 41.2633 292.394 43.3233 293.836 45.864C295.278 48.4047 295.999 51.5633 295.999 55.34C295.999 59.7347 294.729 63.786 292.188 67.494C289.716 71.1333 286.008 74.086 281.064 76.352C276.12 78.5493 269.906 79.648 262.421 79.648ZM371.398 79.648C365.63 79.648 360.274 78.7553 355.33 76.97C350.455 75.116 346.198 72.5067 342.558 69.142C338.988 65.7773 336.207 61.7947 334.215 57.194C332.224 52.5933 331.228 47.512 331.228 41.95C331.228 36.388 332.224 31.3067 334.215 26.706C336.207 22.1053 338.988 18.1227 342.558 14.758C346.198 11.3933 350.455 8.81833 355.33 7.033C360.274 5.179 365.63 4.252 371.398 4.252C378.471 4.252 384.72 5.488 390.144 7.96C395.638 10.432 400.17 14.0027 403.74 18.672L388.393 32.371C386.265 29.693 383.896 27.633 381.286 26.191C378.746 24.6803 375.862 23.925 372.634 23.925C370.094 23.925 367.793 24.337 365.733 25.161C363.673 25.985 361.888 27.1867 360.377 28.766C358.935 30.3453 357.802 32.268 356.978 34.534C356.154 36.7313 355.742 39.2033 355.742 41.95C355.742 44.6967 356.154 47.203 356.978 49.469C357.802 51.6663 358.935 53.5547 360.377 55.134C361.888 56.7133 363.673 57.915 365.733 58.739C367.793 59.563 370.094 59.975 372.634 59.975C375.862 59.975 378.746 59.254 381.286 57.812C383.896 56.3013 386.265 54.207 388.393 51.529L403.74 65.228C400.17 69.8287 395.638 73.3993 390.144 75.94C384.72 78.412 378.471 79.648 371.398 79.648ZM447.051 79.648C441.214 79.648 435.79 78.721 430.777 76.867C425.833 75.013 421.541 72.4037 417.902 69.039C414.263 65.6057 411.413 61.5887 409.353 56.988C407.362 52.3873 406.366 47.3747 406.366 41.95C406.366 36.4567 407.362 31.444 409.353 26.912C411.413 22.3113 414.263 18.3287 417.902 14.964C421.541 11.5307 425.833 8.887 430.777 7.033C435.79 5.179 441.214 4.252 447.051 4.252C452.956 4.252 458.381 5.179 463.325 7.033C468.269 8.887 472.561 11.5307 476.2 14.964C479.839 18.3287 482.655 22.3113 484.646 26.912C486.706 31.444 487.736 36.4567 487.736 41.95C487.736 47.3747 486.706 52.3873 484.646 56.988C482.655 61.5887 479.839 65.6057 476.2 69.039C472.561 72.4037 468.269 75.013 463.325 76.867C458.381 78.721 452.956 79.648 447.051 79.648ZM447.051 59.975C449.317 59.975 451.411 59.563 453.334 58.739C455.325 57.915 457.042 56.7477 458.484 55.237C459.995 53.6577 461.162 51.7693 461.986 49.572C462.81 47.306 463.222 44.7653 463.222 41.95C463.222 39.1347 462.81 36.6283 461.986 34.431C461.162 32.165 459.995 30.2767 458.484 28.766C457.042 27.1867 455.325 25.985 453.334 25.161C451.411 24.337 449.317 23.925 447.051 23.925C444.785 23.925 442.656 24.337 440.665 25.161C438.742 25.985 437.026 27.1867 435.515 28.766C434.073 30.2767 432.94 32.165 432.116 34.431C431.292 36.6283 430.88 39.1347 430.88 41.95C430.88 44.7653 431.292 47.306 432.116 49.572C432.94 51.7693 434.073 53.6577 435.515 55.237C437.026 56.7477 438.742 57.915 440.665 58.739C442.656 59.563 444.785 59.975 447.051 59.975ZM496.559 78V5.9H516.541L553.209 49.778H543.939V5.9H567.629V78H547.647L510.979 34.122H520.249V78H496.559ZM579.341 78V5.9H599.323L635.991 49.778H626.721V5.9H650.411V78H630.429L593.761 34.122H603.031V78H579.341ZM684.371 32.68H716.507V50.19H684.371V32.68ZM686.019 59.666H722.069V78H662.123V5.9H720.73V24.234H686.019V59.666ZM768.713 79.648C762.945 79.648 757.589 78.7553 752.645 76.97C747.769 75.116 743.512 72.5067 739.873 69.142C736.302 65.7773 733.521 61.7947 731.53 57.194C729.538 52.5933 728.543 47.512 728.543 41.95C728.543 36.388 729.538 31.3067 731.53 26.706C733.521 22.1053 736.302 18.1227 739.873 14.758C743.512 11.3933 747.769 8.81833 752.645 7.033C757.589 5.179 762.945 4.252 768.713 4.252C775.785 4.252 782.034 5.488 787.459 7.96C792.952 10.432 797.484 14.0027 801.055 18.672L785.708 32.371C783.579 29.693 781.21 27.633 778.601 26.191C776.06 24.6803 773.176 23.925 769.949 23.925C767.408 23.925 765.108 24.337 763.048 25.161C760.988 25.985 759.202 27.1867 757.692 28.766C756.25 30.3453 755.117 32.268 754.293 34.534C753.469 36.7313 753.057 39.2033 753.057 41.95C753.057 44.6967 753.469 47.203 754.293 49.469C755.117 51.6663 756.25 53.5547 757.692 55.134C759.202 56.7133 760.988 57.915 763.048 58.739C765.108 59.563 767.408 59.975 769.949 59.975C773.176 59.975 776.06 59.254 778.601 57.812C781.21 56.3013 783.579 54.207 785.708 51.529L801.055 65.228C797.484 69.8287 792.952 73.3993 787.459 75.94C782.034 78.412 775.785 79.648 768.713 79.648ZM823.226 78V24.749H802.111V5.9H868.649V24.749H847.534V78H823.226Z" fill="white"/>
</svg>
