<svg width="1031" height="95" viewBox="0 0 1031 95" fill="none" xmlns="http://www.w3.org/2000/svg">
<g filter="url(#filter0_d_41_32)">
<path d="M4 85.0984V1.90164H32.0531V63.3484H69.6157V85.0984H4Z" fill="white"/>
<path d="M116.605 87C103.847 87 93.9011 83.5533 86.769 76.6598C79.6369 69.7664 76.0708 60.0997 76.0708 47.6598V1.90164H104.124V46.8279C104.124 53.1667 105.273 57.6831 107.571 60.377C109.869 62.9918 112.96 64.2992 116.843 64.2992C120.805 64.2992 123.896 62.9918 126.115 60.377C128.413 57.6831 129.562 53.1667 129.562 46.8279V1.90164H157.139V47.6598C157.139 60.0997 153.573 69.7664 146.441 76.6598C139.309 83.5533 129.364 87 116.605 87Z" fill="white"/>
<path d="M213.029 87C206.373 87 200.191 85.9699 194.486 83.9098C188.859 81.7705 183.946 78.7596 179.746 74.877C175.625 70.9945 172.416 66.3989 170.117 61.0902C167.819 55.7814 166.67 49.918 166.67 43.5C166.67 37.082 167.819 31.2186 170.117 25.9098C172.416 20.6011 175.625 16.0055 179.746 12.1229C183.946 8.24043 188.859 5.26912 194.486 3.20902C200.191 1.06967 206.373 0 213.029 0C221.192 0 228.403 1.42623 234.663 4.27869C241.003 7.13115 246.233 11.2514 250.354 16.6393L232.643 32.4467C230.186 29.3566 227.452 26.9795 224.441 25.3156C221.509 23.5724 218.18 22.7008 214.456 22.7008C211.524 22.7008 208.869 23.1762 206.491 24.127C204.114 25.0779 202.054 26.4645 200.31 28.2869C198.646 30.1093 197.338 32.3279 196.388 34.9426C195.437 37.4781 194.961 40.3306 194.961 43.5C194.961 46.6694 195.437 49.5615 196.388 52.1762C197.338 54.7118 198.646 56.8907 200.31 58.7131C202.054 60.5355 204.114 61.9221 206.491 62.873C208.869 63.8238 211.524 64.2992 214.456 64.2992C218.18 64.2992 221.509 63.4672 224.441 61.8033C227.452 60.0601 230.186 57.6434 232.643 54.5533L250.354 70.3607C246.233 75.6694 241.003 79.7896 234.663 82.7213C228.403 85.5738 221.192 87 213.029 87Z" fill="white"/>
<path d="M248.259 85.0984L284.633 1.90164H312.21L348.584 85.0984H319.58L292.716 15.2131H303.652L276.788 85.0984H248.259ZM269.893 70.5984L277.025 50.3934H315.301L322.433 70.5984H269.893Z" fill="white"/>
<path d="M384.086 87C377.113 87 370.377 86.2076 363.878 84.6229C357.38 83.0382 352.031 80.9781 347.831 78.4426L356.865 58C360.828 60.2978 365.226 62.1598 370.06 63.5861C374.973 64.9331 379.728 65.6066 384.324 65.6066C387.018 65.6066 389.118 65.4481 390.624 65.1311C392.209 64.735 393.358 64.2199 394.071 63.5861C394.784 62.8729 395.141 62.041 395.141 61.0902C395.141 59.5847 394.309 58.3962 392.645 57.5246C390.981 56.653 388.762 55.9399 385.988 55.3852C383.294 54.7514 380.322 54.1175 377.073 53.4836C373.824 52.7705 370.535 51.8593 367.207 50.75C363.958 49.6407 360.946 48.1749 358.173 46.3525C355.478 44.5301 353.299 42.153 351.635 39.2213C349.971 36.2104 349.139 32.4863 349.139 28.0492C349.139 22.8989 350.565 18.224 353.418 14.0246C356.35 9.7459 360.669 6.3388 366.375 3.80328C372.16 1.26776 379.331 0 387.89 0C393.517 0 399.064 0.594262 404.532 1.78279C410 2.97131 414.913 4.79371 419.271 7.25L410.832 27.5738C406.711 25.5137 402.709 23.9686 398.826 22.9385C395.022 21.9085 391.298 21.3934 387.652 21.3934C384.958 21.3934 382.818 21.6311 381.233 22.1066C379.648 22.582 378.499 23.2158 377.786 24.0082C377.152 24.8005 376.835 25.6721 376.835 26.6229C376.835 28.0492 377.667 29.1981 379.331 30.0697C380.996 30.862 383.175 31.5355 385.869 32.0902C388.643 32.6448 391.654 33.2391 394.903 33.8729C398.232 34.5068 401.52 35.3784 404.769 36.4877C408.018 37.597 410.99 39.0628 413.685 40.8852C416.458 42.7077 418.677 45.0847 420.341 48.0164C422.005 50.9481 422.837 54.5929 422.837 58.9508C422.837 64.0219 421.371 68.6967 418.439 72.9754C415.586 77.1749 411.307 80.582 405.602 83.1967C399.896 85.7322 392.724 87 384.086 87Z" fill="white"/>
<path d="M466.823 85.0984V1.90164H511.28C522.77 1.90164 531.25 3.96175 536.718 8.08197C542.186 12.123 544.92 17.3128 544.92 23.6516C544.92 27.8511 543.731 31.6148 541.354 34.9426C539.055 38.1913 535.687 40.7664 531.25 42.668C526.812 44.5697 521.344 45.5205 514.846 45.5205L517.223 39.1025C523.721 39.1025 529.308 40.0137 533.984 41.8361C538.738 43.6585 542.384 46.3128 544.92 49.7992C547.535 53.2063 548.842 57.3265 548.842 62.1598C548.842 69.3702 545.831 74.9959 539.808 79.0369C533.865 83.0779 525.148 85.0984 513.657 85.0984H466.823ZM494.4 65.4877H511.28C514.37 65.4877 516.668 64.9331 518.174 63.8238C519.759 62.7145 520.552 61.0902 520.552 58.9508C520.552 56.8115 519.759 55.1872 518.174 54.0779C516.668 52.9686 514.37 52.4139 511.28 52.4139H492.498V33.8729H507.476C510.646 33.8729 512.944 33.3579 514.37 32.3279C515.876 31.2186 516.629 29.6735 516.629 27.6926C516.629 25.6325 515.876 24.0874 514.37 23.0574C512.944 22.0273 510.646 21.5123 507.476 21.5123H494.4V65.4877Z" fill="white"/>
<path d="M584.436 32.8033H621.523V53.0082H584.436V32.8033ZM586.338 63.9426H627.942V85.0984H558.76V1.90164H626.397V23.0574H586.338V63.9426Z" fill="white"/>
<path d="M629.708 85.0984L666.081 1.90164H693.659L730.033 85.0984H701.029L674.165 15.2131H685.1L658.236 85.0984H629.708ZM651.342 70.5984L658.474 50.3934H696.75L703.882 70.5984H651.342Z" fill="white"/>
<path d="M772.59 87C759.831 87 749.886 83.5533 742.754 76.6598C735.622 69.7664 732.056 60.0997 732.056 47.6598V1.90164H760.109V46.8279C760.109 53.1667 761.258 57.6831 763.556 60.377C765.854 62.9918 768.945 64.2992 772.828 64.2992C776.79 64.2992 779.88 62.9918 782.099 60.377C784.397 57.6831 785.547 53.1667 785.547 46.8279V1.90164H813.124V47.6598C813.124 60.0997 809.558 69.7664 802.426 76.6598C795.294 83.5533 785.348 87 772.59 87Z" fill="white"/>
<path d="M825.983 85.0984V1.90164H854.036V63.3484H891.599V85.0984H825.983Z" fill="white"/>
<path d="M941.812 87C935.076 87 928.816 85.9303 923.031 83.791C917.325 81.6516 912.372 78.6407 908.172 74.7582C903.972 70.7964 900.683 66.1612 898.306 60.8525C896.008 55.5437 894.859 49.7596 894.859 43.5C894.859 37.1612 896.008 31.377 898.306 26.1475C900.683 20.8388 903.972 16.2432 908.172 12.3607C912.372 8.3989 917.325 5.34836 923.031 3.20902C928.816 1.06967 935.076 0 941.812 0C948.627 0 954.887 1.06967 960.593 3.20902C966.299 5.34836 971.252 8.3989 975.452 12.3607C979.652 16.2432 982.901 20.8388 985.199 26.1475C987.576 31.377 988.765 37.1612 988.765 43.5C988.765 49.7596 987.576 55.5437 985.199 60.8525C982.901 66.1612 979.652 70.7964 975.452 74.7582C971.252 78.6407 966.299 81.6516 960.593 83.791C954.887 85.9303 948.627 87 941.812 87ZM941.812 64.2992C944.427 64.2992 946.844 63.8238 949.063 62.873C951.361 61.9221 953.342 60.5751 955.006 58.832C956.75 57.0096 958.097 54.8306 959.048 52.2951C959.999 49.6803 960.474 46.7486 960.474 43.5C960.474 40.2514 959.999 37.3593 959.048 34.8238C958.097 32.209 956.75 30.0301 955.006 28.2869C953.342 26.4645 951.361 25.0779 949.063 24.127C946.844 23.1762 944.427 22.7008 941.812 22.7008C939.197 22.7008 936.74 23.1762 934.442 24.127C932.223 25.0779 930.242 26.4645 928.499 28.2869C926.834 30.0301 925.527 32.209 924.576 34.8238C923.625 37.3593 923.149 40.2514 923.149 43.5C923.149 46.7486 923.625 49.6803 924.576 52.2951C925.527 54.8306 926.834 57.0096 928.499 58.832C930.242 60.5751 932.223 61.9221 934.442 62.873C936.74 63.8238 939.197 64.2992 941.812 64.2992Z" fill="white"/>
<path d="M998.947 85.0984V1.90164H1027V85.0984H998.947Z" fill="white"/>
<path d="M4 85.0984V1.90164H32.0531V63.3484H69.6157V85.0984H4Z" stroke="white"/>
<path d="M116.605 87C103.847 87 93.9011 83.5533 86.769 76.6598C79.6369 69.7664 76.0708 60.0997 76.0708 47.6598V1.90164H104.124V46.8279C104.124 53.1667 105.273 57.6831 107.571 60.377C109.869 62.9918 112.96 64.2992 116.843 64.2992C120.805 64.2992 123.896 62.9918 126.115 60.377C128.413 57.6831 129.562 53.1667 129.562 46.8279V1.90164H157.139V47.6598C157.139 60.0997 153.573 69.7664 146.441 76.6598C139.309 83.5533 129.364 87 116.605 87Z" stroke="white"/>
<path d="M213.029 87C206.373 87 200.191 85.9699 194.486 83.9098C188.859 81.7705 183.946 78.7596 179.746 74.877C175.625 70.9945 172.416 66.3989 170.117 61.0902C167.819 55.7814 166.67 49.918 166.67 43.5C166.67 37.082 167.819 31.2186 170.117 25.9098C172.416 20.6011 175.625 16.0055 179.746 12.1229C183.946 8.24043 188.859 5.26912 194.486 3.20902C200.191 1.06967 206.373 0 213.029 0C221.192 0 228.403 1.42623 234.663 4.27869C241.003 7.13115 246.233 11.2514 250.354 16.6393L232.643 32.4467C230.186 29.3566 227.452 26.9795 224.441 25.3156C221.509 23.5724 218.18 22.7008 214.456 22.7008C211.524 22.7008 208.869 23.1762 206.491 24.127C204.114 25.0779 202.054 26.4645 200.31 28.2869C198.646 30.1093 197.338 32.3279 196.388 34.9426C195.437 37.4781 194.961 40.3306 194.961 43.5C194.961 46.6694 195.437 49.5615 196.388 52.1762C197.338 54.7118 198.646 56.8907 200.31 58.7131C202.054 60.5355 204.114 61.9221 206.491 62.873C208.869 63.8238 211.524 64.2992 214.456 64.2992C218.18 64.2992 221.509 63.4672 224.441 61.8033C227.452 60.0601 230.186 57.6434 232.643 54.5533L250.354 70.3607C246.233 75.6694 241.003 79.7896 234.663 82.7213C228.403 85.5738 221.192 87 213.029 87Z" stroke="white"/>
<path d="M248.259 85.0984L284.633 1.90164H312.21L348.584 85.0984H319.58L292.716 15.2131H303.652L276.788 85.0984H248.259ZM269.893 70.5984L277.025 50.3934H315.301L322.433 70.5984H269.893Z" stroke="white"/>
<path d="M384.086 87C377.113 87 370.377 86.2076 363.878 84.6229C357.38 83.0382 352.031 80.9781 347.831 78.4426L356.865 58C360.828 60.2978 365.226 62.1598 370.06 63.5861C374.973 64.9331 379.728 65.6066 384.324 65.6066C387.018 65.6066 389.118 65.4481 390.624 65.1311C392.209 64.735 393.358 64.2199 394.071 63.5861C394.784 62.8729 395.141 62.041 395.141 61.0902C395.141 59.5847 394.309 58.3962 392.645 57.5246C390.981 56.653 388.762 55.9399 385.988 55.3852C383.294 54.7514 380.322 54.1175 377.073 53.4836C373.824 52.7705 370.535 51.8593 367.207 50.75C363.958 49.6407 360.946 48.1749 358.173 46.3525C355.478 44.5301 353.299 42.153 351.635 39.2213C349.971 36.2104 349.139 32.4863 349.139 28.0492C349.139 22.8989 350.565 18.224 353.418 14.0246C356.35 9.7459 360.669 6.3388 366.375 3.80328C372.16 1.26776 379.331 0 387.89 0C393.517 0 399.064 0.594262 404.532 1.78279C410 2.97131 414.913 4.79371 419.271 7.25L410.832 27.5738C406.711 25.5137 402.709 23.9686 398.826 22.9385C395.022 21.9085 391.298 21.3934 387.652 21.3934C384.958 21.3934 382.818 21.6311 381.233 22.1066C379.648 22.582 378.499 23.2158 377.786 24.0082C377.152 24.8005 376.835 25.6721 376.835 26.6229C376.835 28.0492 377.667 29.1981 379.331 30.0697C380.996 30.862 383.175 31.5355 385.869 32.0902C388.643 32.6448 391.654 33.2391 394.903 33.8729C398.232 34.5068 401.52 35.3784 404.769 36.4877C408.018 37.597 410.99 39.0628 413.685 40.8852C416.458 42.7077 418.677 45.0847 420.341 48.0164C422.005 50.9481 422.837 54.5929 422.837 58.9508C422.837 64.0219 421.371 68.6967 418.439 72.9754C415.586 77.1749 411.307 80.582 405.602 83.1967C399.896 85.7322 392.724 87 384.086 87Z" stroke="white"/>
<path d="M466.823 85.0984V1.90164H511.28C522.77 1.90164 531.25 3.96175 536.718 8.08197C542.186 12.123 544.92 17.3128 544.92 23.6516C544.92 27.8511 543.731 31.6148 541.354 34.9426C539.055 38.1913 535.687 40.7664 531.25 42.668C526.812 44.5697 521.344 45.5205 514.846 45.5205L517.223 39.1025C523.721 39.1025 529.308 40.0137 533.984 41.8361C538.738 43.6585 542.384 46.3128 544.92 49.7992C547.535 53.2063 548.842 57.3265 548.842 62.1598C548.842 69.3702 545.831 74.9959 539.808 79.0369C533.865 83.0779 525.148 85.0984 513.657 85.0984H466.823ZM494.4 65.4877H511.28C514.37 65.4877 516.668 64.9331 518.174 63.8238C519.759 62.7145 520.552 61.0902 520.552 58.9508C520.552 56.8115 519.759 55.1872 518.174 54.0779C516.668 52.9686 514.37 52.4139 511.28 52.4139H492.498V33.8729H507.476C510.646 33.8729 512.944 33.3579 514.37 32.3279C515.876 31.2186 516.629 29.6735 516.629 27.6926C516.629 25.6325 515.876 24.0874 514.37 23.0574C512.944 22.0273 510.646 21.5123 507.476 21.5123H494.4V65.4877Z" stroke="white"/>
<path d="M584.436 32.8033H621.523V53.0082H584.436V32.8033ZM586.338 63.9426H627.942V85.0984H558.76V1.90164H626.397V23.0574H586.338V63.9426Z" stroke="white"/>
<path d="M629.708 85.0984L666.081 1.90164H693.659L730.033 85.0984H701.029L674.165 15.2131H685.1L658.236 85.0984H629.708ZM651.342 70.5984L658.474 50.3934H696.75L703.882 70.5984H651.342Z" stroke="white"/>
<path d="M772.59 87C759.831 87 749.886 83.5533 742.754 76.6598C735.622 69.7664 732.056 60.0997 732.056 47.6598V1.90164H760.109V46.8279C760.109 53.1667 761.258 57.6831 763.556 60.377C765.854 62.9918 768.945 64.2992 772.828 64.2992C776.79 64.2992 779.88 62.9918 782.099 60.377C784.397 57.6831 785.547 53.1667 785.547 46.8279V1.90164H813.124V47.6598C813.124 60.0997 809.558 69.7664 802.426 76.6598C795.294 83.5533 785.348 87 772.59 87Z" stroke="white"/>
<path d="M825.983 85.0984V1.90164H854.036V63.3484H891.599V85.0984H825.983Z" stroke="white"/>
<path d="M941.812 87C935.076 87 928.816 85.9303 923.031 83.791C917.325 81.6516 912.372 78.6407 908.172 74.7582C903.972 70.7964 900.683 66.1612 898.306 60.8525C896.008 55.5437 894.859 49.7596 894.859 43.5C894.859 37.1612 896.008 31.377 898.306 26.1475C900.683 20.8388 903.972 16.2432 908.172 12.3607C912.372 8.3989 917.325 5.34836 923.031 3.20902C928.816 1.06967 935.076 0 941.812 0C948.627 0 954.887 1.06967 960.593 3.20902C966.299 5.34836 971.252 8.3989 975.452 12.3607C979.652 16.2432 982.901 20.8388 985.199 26.1475C987.576 31.377 988.765 37.1612 988.765 43.5C988.765 49.7596 987.576 55.5437 985.199 60.8525C982.901 66.1612 979.652 70.7964 975.452 74.7582C971.252 78.6407 966.299 81.6516 960.593 83.791C954.887 85.9303 948.627 87 941.812 87ZM941.812 64.2992C944.427 64.2992 946.844 63.8238 949.063 62.873C951.361 61.9221 953.342 60.5751 955.006 58.832C956.75 57.0096 958.097 54.8306 959.048 52.2951C959.999 49.6803 960.474 46.7486 960.474 43.5C960.474 40.2514 959.999 37.3593 959.048 34.8238C958.097 32.209 956.75 30.0301 955.006 28.2869C953.342 26.4645 951.361 25.0779 949.063 24.127C946.844 23.1762 944.427 22.7008 941.812 22.7008C939.197 22.7008 936.74 23.1762 934.442 24.127C932.223 25.0779 930.242 26.4645 928.499 28.2869C926.834 30.0301 925.527 32.209 924.576 34.8238C923.625 37.3593 923.149 40.2514 923.149 43.5C923.149 46.7486 923.625 49.6803 924.576 52.2951C925.527 54.8306 926.834 57.0096 928.499 58.832C930.242 60.5751 932.223 61.9221 934.442 62.873C936.74 63.8238 939.197 64.2992 941.812 64.2992Z" stroke="white"/>
<path d="M998.947 85.0984V1.90164H1027V85.0984H998.947Z" stroke="white"/>
</g>
<defs>
<filter id="filter0_d_41_32" x="0" y="0" width="1031" height="95" filterUnits="userSpaceOnUse" color-interpolation-filters="sRGB">
<feFlood flood-opacity="0" result="BackgroundImageFix"/>
<feColorMatrix in="SourceAlpha" type="matrix" values="0 0 0 0 0 0 0 0 0 0 0 0 0 0 0 0 0 0 127 0" result="hardAlpha"/>
<feOffset dy="4"/>
<feGaussianBlur stdDeviation="2"/>
<feComposite in2="hardAlpha" operator="out"/>
<feColorMatrix type="matrix" values="0 0 0 0 0 0 0 0 0 0 0 0 0 0 0 0 0 0 0.25 0"/>
<feBlend mode="normal" in2="BackgroundImageFix" result="effect1_dropShadow_41_32"/>
<feBlend mode="normal" in="SourceGraphic" in2="effect1_dropShadow_41_32" result="shape"/>
</filter>
</defs>
</svg>
